# Blender 3.6.5
# www.blender.org
mtllib speed.mtl
o Text
v 3.006505 2.875965 -0.236376
v 2.774338 2.535484 -0.273820
v 2.211515 2.544352 -0.219168
v 2.233858 3.234224 -0.101022
v 2.796697 3.225356 -0.155675
v 2.627069 2.656178 -0.238885
v 2.782664 2.879529 -0.214633
v 2.641725 3.109424 -0.161261
v 2.452064 3.112412 -0.142844
v 2.437385 2.659167 -0.220466
v 1.620144 2.672044 -0.141110
v 2.082812 2.664754 -0.186036
v 2.183416 2.544795 -0.216440
v 1.393307 2.557245 -0.139718
v 1.415650 3.247117 -0.021571
v 2.207532 3.234639 -0.098465
v 2.100426 3.117953 -0.108699
v 1.634823 3.125289 -0.063488
v 1.629384 2.957345 -0.092250
v 2.141006 2.949283 -0.141930
v 2.137174 2.830970 -0.162192
v 1.625552 2.839031 -0.112512
v 0.801936 2.684937 -0.061659
v 1.264604 2.677646 -0.106586
v 1.365208 2.557688 -0.136989
v 0.575099 2.570137 -0.060267
v 0.597442 3.260009 0.057879
v 1.389324 3.247531 -0.019015
v 1.282218 3.130845 -0.029249
v 0.816615 3.138181 0.015963
v 0.811176 2.970237 -0.012799
v 1.322798 2.962176 -0.062479
v 1.318966 2.843862 -0.082741
v 0.807344 2.851923 -0.033061
v 0.525321 2.808474 -0.014025
v -0.021118 2.817084 0.039036
v -0.028808 2.579653 -0.001626
v -0.251813 2.583166 0.020029
v -0.229471 3.273038 0.138175
v 0.539974 3.260914 0.063460
v 0.313137 3.146115 0.064852
v -0.012231 3.151241 0.096446
v -0.019221 2.935428 0.059486
v 0.306147 2.930301 0.027892
v -0.305850 2.988796 0.095834
v -0.315465 2.691910 0.044990
v -0.412343 2.585696 0.035617
v -1.031706 2.595455 0.095759
v -1.132309 2.715414 0.126162
v -0.570459 2.706561 0.071604
v -0.538928 2.741053 0.074642
v -0.534621 2.874026 0.097415
v -1.088797 2.882758 0.151227
v -1.079369 3.173892 0.201086
v -0.978477 3.284840 0.210906
v -0.261758 3.273547 0.141310
v -0.367704 3.156842 0.130964
v -0.819459 3.163961 0.174831
v -0.858902 3.121860 0.171214
v -0.862928 2.997573 0.149928
v 2.986143 2.913582 -0.452177
v 2.753975 2.573102 -0.489621
v 2.191153 2.581970 -0.434970
v 2.213495 3.271842 -0.316823
v 2.776335 3.262973 -0.371476
v 2.606707 2.693796 -0.454687
v 2.762301 2.917146 -0.430435
v 2.621362 3.147041 -0.377062
v 2.431701 3.150029 -0.358646
v 2.417022 2.696785 -0.436268
v 1.599782 2.709662 -0.356911
v 2.062450 2.702372 -0.401838
v 2.163053 2.582412 -0.432241
v 1.372945 2.594862 -0.355519
v 1.395287 3.284734 -0.237373
v 2.187170 3.272256 -0.314267
v 2.080064 3.155570 -0.324501
v 1.614461 3.162907 -0.279289
v 1.609021 2.994962 -0.308051
v 2.120643 2.986901 -0.357731
v 2.116812 2.868587 -0.377993
v 1.605190 2.876649 -0.328313
v 0.781574 2.722554 -0.277461
v 1.244242 2.715264 -0.322387
v 1.344845 2.595305 -0.352791
v 0.554737 2.607754 -0.276069
v 0.577079 3.297626 -0.157922
v 1.368962 3.285149 -0.234816
v 1.261856 3.168463 -0.245050
v 0.796253 3.175799 -0.199839
v 0.790814 3.007854 -0.228601
v 1.302435 2.999793 -0.278281
v 1.298604 2.881480 -0.298543
v 0.786982 2.889541 -0.248863
v 0.504958 2.846091 -0.229826
v -0.041481 2.854701 -0.176765
v -0.049170 2.617270 -0.217427
v -0.272175 2.620784 -0.195773
v -0.249833 3.310656 -0.077626
v 0.519611 3.298532 -0.152342
v 0.292774 3.183732 -0.150949
v -0.032594 3.188859 -0.119355
v -0.039583 2.973045 -0.156315
v 0.285785 2.967918 -0.187909
v -0.326212 3.026413 -0.119967
v -0.335827 2.729527 -0.170811
v -0.432705 2.623313 -0.180185
v -1.052068 2.633072 -0.120043
v -1.152672 2.753031 -0.089640
v -0.590821 2.744178 -0.144197
v -0.559290 2.778671 -0.141160
v -0.554983 2.911644 -0.118387
v -1.109160 2.920376 -0.064575
v -1.099731 3.211509 -0.014716
v -0.998839 3.322457 -0.004896
v -0.282121 3.311164 -0.074491
v -0.388067 3.194460 -0.084838
v -0.839821 3.201578 -0.040971
v -0.879265 3.159478 -0.044588
v -0.883290 3.035191 -0.065873
v -0.326212 3.026413 -0.119967
v -0.305850 2.988796 0.095834
v -0.335827 2.729527 -0.170811
v -0.315465 2.691910 0.044990
v -0.432705 2.623313 -0.180185
v -0.412343 2.585696 0.035617
v -1.052068 2.633072 -0.120043
v -1.031706 2.595455 0.095759
v -1.152672 2.753031 -0.089640
v -1.132309 2.715414 0.126162
v -0.590821 2.744178 -0.144197
v -0.570459 2.706561 0.071604
v -0.559290 2.778671 -0.141160
v -0.538928 2.741053 0.074642
v -0.554983 2.911644 -0.118387
v -0.534621 2.874026 0.097415
v -1.109160 2.920376 -0.064575
v -1.088797 2.882758 0.151227
v -1.099731 3.211509 -0.014716
v -1.079369 3.173892 0.201086
v -0.998839 3.322457 -0.004896
v -0.978477 3.284840 0.210906
v -0.282121 3.311164 -0.074491
v -0.261758 3.273547 0.141310
v -0.388067 3.194460 -0.084838
v -0.367704 3.156842 0.130964
v -0.839821 3.201578 -0.040971
v -0.819459 3.163961 0.174831
v -0.879265 3.159478 -0.044588
v -0.858902 3.121860 0.171214
v -0.883290 3.035191 -0.065873
v -0.862928 2.997573 0.149928
v 0.504958 2.846091 -0.229826
v 0.525321 2.808474 -0.014025
v -0.041481 2.854701 -0.176765
v -0.021118 2.817084 0.039036
v -0.049170 2.617270 -0.217427
v -0.028808 2.579653 -0.001626
v -0.272175 2.620784 -0.195773
v -0.251813 2.583166 0.020029
v -0.249833 3.310656 -0.077626
v -0.229471 3.273038 0.138175
v 0.519611 3.298532 -0.152342
v 0.539974 3.260914 0.063460
v 0.292774 3.183732 -0.150949
v 0.313137 3.146115 0.064852
v -0.032594 3.188859 -0.119355
v -0.012231 3.151241 0.096446
v -0.039583 2.973045 -0.156315
v -0.019221 2.935428 0.059486
v 0.285785 2.967918 -0.187909
v 0.306147 2.930301 0.027892
v 0.781574 2.722554 -0.277461
v 0.801936 2.684937 -0.061659
v 1.244242 2.715264 -0.322387
v 1.264604 2.677646 -0.106586
v 1.344845 2.595305 -0.352791
v 1.365208 2.557688 -0.136989
v 0.554737 2.607754 -0.276069
v 0.575099 2.570137 -0.060267
v 0.577079 3.297626 -0.157922
v 0.597442 3.260009 0.057879
v 1.368962 3.285149 -0.234816
v 1.389324 3.247531 -0.019015
v 1.261856 3.168463 -0.245050
v 1.282218 3.130845 -0.029249
v 0.796253 3.175799 -0.199839
v 0.816615 3.138181 0.015963
v 0.790814 3.007854 -0.228601
v 0.811176 2.970237 -0.012799
v 1.302435 2.999793 -0.278281
v 1.322798 2.962176 -0.062479
v 1.298604 2.881480 -0.298543
v 1.318966 2.843862 -0.082741
v 0.786982 2.889541 -0.248863
v 0.807344 2.851923 -0.033061
v 1.599782 2.709662 -0.356911
v 1.620144 2.672044 -0.141110
v 2.062450 2.702372 -0.401838
v 2.082812 2.664754 -0.186036
v 2.163053 2.582412 -0.432241
v 2.183416 2.544795 -0.216440
v 1.372945 2.594862 -0.355519
v 1.393307 2.557245 -0.139718
v 1.395287 3.284734 -0.237373
v 1.415650 3.247117 -0.021571
v 2.187170 3.272256 -0.314267
v 2.207532 3.234639 -0.098465
v 2.080064 3.155570 -0.324501
v 2.100426 3.117953 -0.108699
v 1.614461 3.162907 -0.279289
v 1.634823 3.125289 -0.063488
v 1.609021 2.994962 -0.308051
v 1.629384 2.957345 -0.092250
v 2.120643 2.986901 -0.357731
v 2.141006 2.949283 -0.141930
v 2.116812 2.868587 -0.377993
v 2.137174 2.830970 -0.162192
v 1.605190 2.876649 -0.328313
v 1.625552 2.839031 -0.112512
v 2.986143 2.913582 -0.452177
v 3.006505 2.875965 -0.236376
v 2.753975 2.573102 -0.489621
v 2.774338 2.535484 -0.273820
v 2.191153 2.581970 -0.434970
v 2.211515 2.544352 -0.219168
v 2.213495 3.271842 -0.316823
v 2.233858 3.234224 -0.101022
v 2.776335 3.262973 -0.371476
v 2.796697 3.225356 -0.155675
v 2.606707 2.693796 -0.454687
v 2.627069 2.656178 -0.238885
v 2.762301 2.917146 -0.430435
v 2.782664 2.879529 -0.214633
v 2.621362 3.147041 -0.377062
v 2.641725 3.109424 -0.161261
v 2.431701 3.150029 -0.358646
v 2.452064 3.112412 -0.142844
v 2.417022 2.696785 -0.436268
v 2.437385 2.659167 -0.220466
vn 0.0926 -0.1710 0.9809
vn -0.0926 0.1710 -0.9809
vn 0.7263 0.6855 0.0510
vn 0.9222 -0.3569 -0.1492
vn 0.3865 -0.9017 -0.1937
vn -0.4406 -0.8905 -0.1137
vn -0.8929 0.4217 0.1578
vn -0.3860 0.9020 0.1936
vn -0.9220 0.3574 0.1493
vn -0.7263 -0.6855 -0.0510
vn -0.9224 0.3562 0.1491
vn -0.3872 0.9014 0.1937
vn 0.9172 0.3981 -0.0171
vn 0.3876 -0.9013 -0.1937
vn 0.3803 -0.9044 -0.1935
vn 0.9196 -0.3631 -0.1501
vn 0.6811 -0.7077 -0.1876
vn -0.6811 0.7077 0.1876
vn 0.4406 0.8905 0.1137
vn 0.8929 -0.4217 -0.1578
vn 0.9182 0.3956 -0.0177
vn 0.3850 -0.9024 -0.1936
vn 0.9952 -0.0170 -0.0969
vn 0.4510 -0.8711 -0.1944
vn 0.5081 0.8554 0.1012
vn -0.4465 0.8734 0.1944
vn -0.9951 0.0175 0.0969
vn -0.5042 -0.8576 -0.1019
vt 0.222222 0.000000
vt 0.888889 0.000000
vt 0.333333 0.000000
vt 0.444444 0.000000
vt 0.777778 0.000000
vt 0.000000 0.000000
vt 1.000000 0.000000
vt 0.666667 0.000000
vt 0.555556 0.000000
vt 0.111111 0.000000
vt 0.272727 0.000000
vt 0.636364 0.000000
vt 0.363636 0.000000
vt 0.454545 0.000000
vt 0.545455 0.000000
vt 0.727273 0.000000
vt 0.818182 0.000000
vt 0.909091 0.000000
vt 0.090909 0.000000
vt 0.181818 0.000000
vt 0.600000 0.000000
vt 0.733333 0.000000
vt 0.800000 0.000000
vt 0.533333 0.000000
vt 0.866667 0.000000
vt 0.933333 0.000000
vt 0.466667 0.000000
vt 0.066667 0.000000
vt 0.400000 0.000000
vt 0.200000 0.000000
vt 0.266667 0.000000
vt 0.133333 0.000000
vt 0.000000 1.000000
vt 0.062500 1.000000
vt 0.062500 0.000000
vt 0.125000 1.000000
vt 0.125000 0.000000
vt 0.187500 1.000000
vt 0.187500 0.000000
vt 0.250000 1.000000
vt 0.250000 0.000000
vt 0.312500 1.000000
vt 0.312500 0.000000
vt 0.375000 1.000000
vt 0.375000 0.000000
vt 0.437500 1.000000
vt 0.437500 0.000000
vt 0.500000 1.000000
vt 0.500000 0.000000
vt 0.562500 1.000000
vt 0.562500 0.000000
vt 0.625000 1.000000
vt 0.625000 0.000000
vt 0.687500 1.000000
vt 0.687500 0.000000
vt 0.750000 1.000000
vt 0.750000 0.000000
vt 0.812500 1.000000
vt 0.812500 0.000000
vt 0.875000 1.000000
vt 0.875000 0.000000
vt 0.937500 1.000000
vt 0.937500 0.000000
vt 1.000000 1.000000
vt 0.166667 1.000000
vt 0.166667 0.000000
vt 0.333333 1.000000
vt 0.666667 1.000000
vt 0.833333 1.000000
vt 0.833333 0.000000
vt 0.083333 1.000000
vt 0.083333 0.000000
vt 0.416667 1.000000
vt 0.416667 0.000000
vt 0.583333 1.000000
vt 0.583333 0.000000
vt 0.916667 1.000000
vt 0.916667 0.000000
vt 0.200000 1.000000
vt 0.400000 1.000000
vt 0.600000 1.000000
vt 0.800000 1.000000
s 0
usemtl Material.001
f 3/1/1 9/2/1 4/3/1
f 9/2/1 5/4/1 4/3/1
f 9/2/1 8/5/1 5/4/1
f 8/5/1 1/6/1 5/4/1
f 3/1/1 10/7/1 9/2/1
f 7/8/1 1/6/1 8/5/1
f 6/9/1 1/6/1 7/8/1
f 6/9/1 2/10/1 1/6/1
f 3/1/1 6/9/1 10/7/1
f 3/1/1 2/10/1 6/9/1
f 14/11/1 18/12/1 15/13/1
f 18/12/1 16/14/1 15/13/1
f 18/12/1 17/15/1 16/14/1
f 14/11/1 19/16/1 18/12/1
f 14/11/1 22/7/1 19/16/1
f 22/7/1 20/17/1 19/16/1
f 22/7/1 21/18/1 20/17/1
f 14/11/1 11/6/1 22/7/1
f 14/11/1 12/19/1 11/6/1
f 14/11/1 13/20/1 12/19/1
f 26/11/1 30/12/1 27/13/1
f 30/12/1 28/14/1 27/13/1
f 30/12/1 29/15/1 28/14/1
f 26/11/1 31/16/1 30/12/1
f 26/11/1 34/7/1 31/16/1
f 34/7/1 32/17/1 31/16/1
f 34/7/1 33/18/1 32/17/1
f 26/11/1 23/6/1 34/7/1
f 26/11/1 24/19/1 23/6/1
f 26/11/1 25/20/1 24/19/1
f 38/3/1 42/5/1 39/4/1
f 42/5/1 40/9/1 39/4/1
f 42/5/1 41/8/1 40/9/1
f 41/8/1 35/6/1 40/9/1
f 38/3/1 43/2/1 42/5/1
f 44/7/1 35/6/1 41/8/1
f 38/3/1 36/10/1 43/2/1
f 36/10/1 44/7/1 43/2/1
f 36/10/1 35/6/1 44/7/1
f 38/3/1 37/1/1 36/10/1
f 54/21/1 56/22/1 55/8/1
f 54/21/1 57/23/1 56/22/1
f 53/24/1 58/25/1 54/21/1
f 58/25/1 57/23/1 54/21/1
f 53/24/1 59/26/1 58/25/1
f 53/24/1 60/7/1 59/26/1
f 53/24/1 45/6/1 60/7/1
f 53/24/1 52/27/1 45/6/1
f 52/27/1 46/28/1 45/6/1
f 51/29/1 46/28/1 52/27/1
f 50/3/1 46/28/1 51/29/1
f 48/30/1 50/3/1 49/31/1
f 48/30/1 46/28/1 50/3/1
f 48/30/1 47/32/1 46/28/1
f 63/1/2 64/3/2 69/2/2
f 69/2/2 64/3/2 65/4/2
f 69/2/2 65/4/2 68/5/2
f 68/5/2 65/4/2 61/6/2
f 63/1/2 69/2/2 70/7/2
f 67/8/2 68/5/2 61/6/2
f 66/9/2 67/8/2 61/6/2
f 66/9/2 61/6/2 62/10/2
f 63/1/2 70/7/2 66/9/2
f 63/1/2 66/9/2 62/10/2
f 74/11/2 75/13/2 78/12/2
f 78/12/2 75/13/2 76/14/2
f 78/12/2 76/14/2 77/15/2
f 74/11/2 78/12/2 79/16/2
f 74/11/2 79/16/2 82/7/2
f 82/7/2 79/16/2 80/17/2
f 82/7/2 80/17/2 81/18/2
f 74/11/2 82/7/2 71/6/2
f 74/11/2 71/6/2 72/19/2
f 74/11/2 72/19/2 73/20/2
f 86/11/2 87/13/2 90/12/2
f 90/12/2 87/13/2 88/14/2
f 90/12/2 88/14/2 89/15/2
f 86/11/2 90/12/2 91/16/2
f 86/11/2 91/16/2 94/7/2
f 94/7/2 91/16/2 92/17/2
f 94/7/2 92/17/2 93/18/2
f 86/11/2 94/7/2 83/6/2
f 86/11/2 83/6/2 84/19/2
f 86/11/2 84/19/2 85/20/2
f 98/3/2 99/4/2 102/5/2
f 102/5/2 99/4/2 100/9/2
f 102/5/2 100/9/2 101/8/2
f 101/8/2 100/9/2 95/6/2
f 98/3/2 102/5/2 103/2/2
f 104/7/2 101/8/2 95/6/2
f 98/3/2 103/2/2 96/10/2
f 96/10/2 103/2/2 104/7/2
f 96/10/2 104/7/2 95/6/2
f 98/3/2 96/10/2 97/1/2
f 114/21/2 115/8/2 116/22/2
f 114/21/2 116/22/2 117/23/2
f 113/24/2 114/21/2 118/25/2
f 118/25/2 114/21/2 117/23/2
f 113/24/2 118/25/2 119/26/2
f 113/24/2 119/26/2 120/7/2
f 113/24/2 120/7/2 105/6/2
f 113/24/2 105/6/2 112/27/2
f 112/27/2 105/6/2 106/28/2
f 111/29/2 112/27/2 106/28/2
f 110/3/2 111/29/2 106/28/2
f 108/30/2 109/31/2 110/3/2
f 108/30/2 110/3/2 106/28/2
f 108/30/2 106/28/2 107/32/2
s 1
f 122/33/3 124/34/4 123/35/4 121/6/3
f 124/34/4 126/36/5 125/37/5 123/35/4
f 126/36/5 128/38/6 127/39/6 125/37/5
f 128/38/6 130/40/7 129/41/7 127/39/6
f 130/40/7 132/42/8 131/43/8 129/41/7
f 132/42/8 134/44/9 133/45/9 131/43/8
f 134/44/9 136/46/10 135/47/10 133/45/9
f 136/46/10 138/48/10 137/49/10 135/47/10
f 138/48/10 140/50/11 139/51/11 137/49/10
f 140/50/11 142/52/12 141/53/12 139/51/11
f 142/52/12 144/54/13 143/55/13 141/53/12
f 144/54/13 146/56/14 145/57/14 143/55/13
f 146/56/14 148/58/15 147/59/15 145/57/14
f 148/58/15 150/60/16 149/61/16 147/59/15
f 150/60/16 152/62/3 151/63/3 149/61/16
f 152/62/3 122/64/3 121/7/3 151/63/3
f 154/33/17 156/65/17 155/66/17 153/6/17
f 156/65/17 158/67/17 157/3/17 155/66/17
f 158/67/17 160/48/10 159/49/10 157/3/17
f 160/48/10 162/68/18 161/8/18 159/49/10
f 162/68/18 164/69/3 163/70/3 161/8/18
f 164/69/3 154/64/17 153/7/17 163/70/3
f 166/33/10 168/40/17 167/41/17 165/6/10
f 168/40/17 170/48/3 169/49/3 167/41/17
f 170/48/3 172/56/18 171/57/18 169/49/3
f 172/56/18 166/64/10 165/7/10 171/57/18
f 174/33/3 176/71/19 175/72/19 173/6/3
f 176/71/19 178/65/20 177/66/20 175/72/19
f 178/65/20 180/40/10 179/41/10 177/66/20
f 180/40/10 182/67/18 181/3/18 179/41/10
f 182/67/18 184/73/21 183/74/21 181/3/18
f 184/73/21 186/48/22 185/49/22 183/74/21
f 186/48/22 188/75/17 187/76/17 185/49/22
f 188/75/17 190/68/3 189/8/3 187/76/17
f 190/68/3 192/56/3 191/57/3 189/8/3
f 192/56/3 194/69/17 193/70/17 191/57/3
f 194/69/17 196/77/17 195/78/17 193/70/17
f 196/77/17 174/64/3 173/7/3 195/78/17
f 198/33/3 200/71/19 199/72/19 197/6/3
f 200/71/19 202/65/20 201/66/20 199/72/19
f 202/65/20 204/40/10 203/41/10 201/66/20
f 204/40/10 206/67/18 205/3/18 203/41/10
f 206/67/18 208/73/21 207/74/21 205/3/18
f 208/73/21 210/48/22 209/49/22 207/74/21
f 210/48/22 212/75/17 211/76/17 209/49/22
f 212/75/17 214/68/3 213/8/3 211/76/17
f 214/68/3 216/56/3 215/57/3 213/8/3
f 216/56/3 218/69/17 217/70/17 215/57/3
f 218/69/17 220/77/17 219/78/17 217/70/17
f 220/77/17 198/64/3 197/7/3 219/78/17
f 222/33/23 224/79/24 223/30/24 221/6/23
f 224/79/24 226/80/10 225/29/10 223/30/24
f 226/80/10 228/81/18 227/21/18 225/29/10
f 228/81/18 230/82/25 229/23/25 227/21/18
f 230/82/25 222/64/23 221/7/23 229/23/25
f 232/33/26 234/79/27 233/30/27 231/6/26
f 234/79/27 236/80/28 235/29/28 233/30/27
f 236/80/28 238/81/17 237/21/17 235/29/28
f 238/81/17 240/82/3 239/23/3 237/21/17
f 240/82/3 232/64/26 231/7/26 239/23/3
